<svg xmlns:svg="http://www.w3.org/2000/svg" xmlns="http://www.w3.org/2000/svg" width="560" height="675" id="iceberg_illustration">
	<rect style="fill:#fff;" width="560" height="675" x="0" y="0" id="background"/>
	<path style="fill:#daf0fd;stroke:#787878;stroke-width:3;" d="M -3,-3 563,-3 563,678 -3,678 z M 261.3,172.7 261.3,200 249.2,221.2 227,232.3 214.9,259.6 205.8,263.6 185.6,267.7 167.4,282.8 161.3,298 161.3,310.1 135.1,322.2 119.9,332.3 112.8,345.5 108.8,358.6 107.8,384.9 116.9,413.2 126,426.3 142.1,427.3 144.2,441.4 144.2,457.6 176.5,461.6 178.5,484.9 198.7,502 208.8,513.2 203.8,530.3 211.8,544.5 222.9,563.7 232,583.9 257.3,587.9 262.3,609.1 262.3,635.4 271.4,649.5 286.6,649.5 299.7,633.4 329,603.1 345.2,569.7 345.2,537.4 361.3,520.2 365.4,499 377.5,480.8 390.6,467.7 401.7,442.4 402.8,425.3 424,416.2 424,396 426,378.8 434.1,369.7 446.2,362.6 461.3,357.6 465.4,338.4 463.4,316.2 447.2,301 417.9,277.8 395.7,259.6 390.6,244.5 374.5,236.4 361.3,235.4 333.1,218.2 318.9,203.3 299.7,191.9 286.6,181.8 261.3,172.7 z" id="iceberg"/>
	<g style="fill:#fffc00;" id="sun">
		<circle cx="478" cy="90" r="33.5" id="sun_circle"/>
		<path d="M 538,90 497.6,93.9 533.4,113 494.6,101.1 520.4,132.4 489.1,106.6 501,145.4 481.9,109.6 478,150 474.1,109.6 455,145.4 466.9,106.6 435.6,132.4 461.4,101.1 422.6,113 458.4,93.9 418,90 458.4,86.1 422.6,67 461.4,78.9 435.6,47.6 466.9,73.4 455,34.6 474.1,70.4 478,30 481.9,70.4 501,34.6 489.1,73.4 520.4,47.6 494.6,78.9 533.4,67 497.6,86.1 z" id="sun_star"/>
	</g>
	<path style="fill:DarkBlue;fill-opacity:0.8;stroke:#27aaea;stroke-width:3;" d="M 570,274 C 548,284.5 490.4,281.6 432.2,272.2 390.4,265.4 371.9,300.8 330.8,292.6 281.8,282.8 249.5,258.5 197.7,278 165.9,290 137.2,298.8 109.3,287.9 64.8,270.6 65.8,250.8 23.2,264.9 8.9,269.6 -2.5,273.5 -10,277 L -10,750 570,750 z" id="water"/>
</svg>